<?xml version="1.0" standalone="no"?>
<svg xmlns:xlink="http://www.w3.org/1999/xlink" id="wave" style="transform:rotate(0deg); transition: 0.3s" viewBox="0 0 1440 490" version="1.1" xmlns="http://www.w3.org/2000/svg"><defs><linearGradient id="sw-gradient-0" x1="0" x2="0" y1="1" y2="0"><stop stop-color="rgba(255, 191, 70, 1)" offset="0%"/><stop stop-color="rgba(243, 106, 62, 1)" offset="100%"/></linearGradient></defs><path style="transform:translate(0, 0px); opacity:1" fill="url(#sw-gradient-0)" d="M0,49L48,49C96,49,192,49,288,73.5C384,98,480,147,576,212.3C672,278,768,359,864,367.5C960,376,1056,310,1152,236.8C1248,163,1344,82,1440,106.2C1536,131,1632,261,1728,285.8C1824,310,1920,229,2016,212.3C2112,196,2208,245,2304,228.7C2400,212,2496,131,2592,147C2688,163,2784,278,2880,343C2976,408,3072,425,3168,392C3264,359,3360,278,3456,220.5C3552,163,3648,131,3744,114.3C3840,98,3936,98,4032,138.8C4128,180,4224,261,4320,261.3C4416,261,4512,180,4608,163.3C4704,147,4800,196,4896,245C4992,294,5088,343,5184,334.8C5280,327,5376,261,5472,196C5568,131,5664,65,5760,57.2C5856,49,5952,98,6048,138.8C6144,180,6240,212,6336,245C6432,278,6528,310,6624,277.7C6720,245,6816,147,6864,98L6912,49L6912,490L6864,490C6816,490,6720,490,6624,490C6528,490,6432,490,6336,490C6240,490,6144,490,6048,490C5952,490,5856,490,5760,490C5664,490,5568,490,5472,490C5376,490,5280,490,5184,490C5088,490,4992,490,4896,490C4800,490,4704,490,4608,490C4512,490,4416,490,4320,490C4224,490,4128,490,4032,490C3936,490,3840,490,3744,490C3648,490,3552,490,3456,490C3360,490,3264,490,3168,490C3072,490,2976,490,2880,490C2784,490,2688,490,2592,490C2496,490,2400,490,2304,490C2208,490,2112,490,2016,490C1920,490,1824,490,1728,490C1632,490,1536,490,1440,490C1344,490,1248,490,1152,490C1056,490,960,490,864,490C768,490,672,490,576,490C480,490,384,490,288,490C192,490,96,490,48,490L0,490Z"/><defs><linearGradient id="sw-gradient-1" x1="0" x2="0" y1="1" y2="0"><stop stop-color="rgba(243, 106, 62, 1)" offset="0%"/><stop stop-color="rgba(255, 179, 11, 1)" offset="100%"/></linearGradient></defs><path style="transform:translate(0, 50px); opacity:0.9" fill="url(#sw-gradient-1)" d="M0,98L48,122.5C96,147,192,196,288,228.7C384,261,480,278,576,261.3C672,245,768,196,864,163.3C960,131,1056,114,1152,98C1248,82,1344,65,1440,106.2C1536,147,1632,245,1728,269.5C1824,294,1920,245,2016,236.8C2112,229,2208,261,2304,294C2400,327,2496,359,2592,383.8C2688,408,2784,425,2880,400.2C2976,376,3072,310,3168,285.8C3264,261,3360,278,3456,302.2C3552,327,3648,359,3744,334.8C3840,310,3936,229,4032,228.7C4128,229,4224,310,4320,294C4416,278,4512,163,4608,98C4704,33,4800,16,4896,81.7C4992,147,5088,294,5184,326.7C5280,359,5376,278,5472,236.8C5568,196,5664,196,5760,220.5C5856,245,5952,294,6048,326.7C6144,359,6240,376,6336,367.5C6432,359,6528,327,6624,294C6720,261,6816,229,6864,212.3L6912,196L6912,490L6864,490C6816,490,6720,490,6624,490C6528,490,6432,490,6336,490C6240,490,6144,490,6048,490C5952,490,5856,490,5760,490C5664,490,5568,490,5472,490C5376,490,5280,490,5184,490C5088,490,4992,490,4896,490C4800,490,4704,490,4608,490C4512,490,4416,490,4320,490C4224,490,4128,490,4032,490C3936,490,3840,490,3744,490C3648,490,3552,490,3456,490C3360,490,3264,490,3168,490C3072,490,2976,490,2880,490C2784,490,2688,490,2592,490C2496,490,2400,490,2304,490C2208,490,2112,490,2016,490C1920,490,1824,490,1728,490C1632,490,1536,490,1440,490C1344,490,1248,490,1152,490C1056,490,960,490,864,490C768,490,672,490,576,490C480,490,384,490,288,490C192,490,96,490,48,490L0,490Z"/></svg>